<svg xmlns="http://www.w3.org/2000/svg" viewBox="0 0 512 512">
    <rect width="512" height="512" fill="#008069" rx="100" />
    <path fill="#ffffff" d="M256,96c-88.3,0-160,65.6-160,146.6c0,46,24.1,86.6,61,113.6c-4.9,20.8-17.7,46.5-18.4,48
        c-1.5,3.3-1.8,7.1-0.9,10.6c1,3.4,3.2,6.4,6.2,8.4c3,2,6.7,2.8,10.3,2.4c37.5-4.8,70.9-20.9,94.3-36.4c2.5,0.1,5,0.1,7.5,0.1
        c88.3,0,160-65.6,160-146.6C416,161.6,344.3,96,256,96z M256,134.4c69,0,124.9,48.4,124.9,108.2S325,350.8,256,350.8
        c-2.4,0-4.8,0-7.2-0.1c-3.1-0.1-6-1.1-8.5-2.6l-3.3-2l-3.5,1.7c-17.4,8.5-39.7,19.9-66.2,25.9c7.6-17.2,14.5-36,17-54l1.3-9.5
        l-7.7-5.9C150.8,284,131.2,254.4,131.2,242.6C131.2,182.8,187,134.4,256,134.4z"/>
    <circle cx="196" cy="242" r="16" fill="#ffffff" />
    <circle cx="256" cy="242" r="16" fill="#ffffff" />
    <circle cx="316" cy="242" r="16" fill="#ffffff" />
</svg>
